<svg xmlns="http://www.w3.org/2000/svg" width="920" height="924" viewBox="0 0 920 924">
<rect width="100%" height="100%" fill="#ffffff"/>
<text x="24" y="34" font-family="Arial" font-size="22" font-weight="700" fill="#111827">AMD Kernel Speedup</text>
<text x="24" y="93" font-family="Arial" font-size="14" fill="#374151">pytorch_eager fp32</text>
<rect x="260" y="70" width="91" height="34" rx="3" fill="#2563eb"/>
<text x="361" y="93" font-family="Arial" font-size="14" fill="#111827">1x</text>
<text x="24" y="145" font-family="Arial" font-size="14" fill="#374151">pytorch_eager fp16</text>
<rect x="260" y="122" width="97" height="34" rx="3" fill="#059669"/>
<text x="367" y="145" font-family="Arial" font-size="14" fill="#111827">1.06x</text>
<text x="24" y="197" font-family="Arial" font-size="14" fill="#374151">pytorch_eager bf16</text>
<rect x="260" y="174" width="92" height="34" rx="3" fill="#dc2626"/>
<text x="362" y="197" font-family="Arial" font-size="14" fill="#111827">1.01x</text>
<text x="24" y="249" font-family="Arial" font-size="14" fill="#374151">rocblas_precomputed_index fp32</text>
<rect x="260" y="226" width="174" height="34" rx="3" fill="#7c3aed"/>
<text x="444" y="249" font-family="Arial" font-size="14" fill="#111827">1.9x</text>
<text x="24" y="301" font-family="Arial" font-size="14" fill="#374151">rocblas_precomputed_index fp16</text>
<rect x="260" y="278" width="205" height="34" rx="3" fill="#ea580c"/>
<text x="475" y="301" font-family="Arial" font-size="14" fill="#111827">2.24x</text>
<text x="24" y="353" font-family="Arial" font-size="14" fill="#374151">rocblas_precomputed_index bf16</text>
<rect x="260" y="330" width="206" height="34" rx="3" fill="#0891b2"/>
<text x="476" y="353" font-family="Arial" font-size="14" fill="#111827">2.24x</text>
<text x="24" y="405" font-family="Arial" font-size="14" fill="#374151">rocblas_plus_triton_score fp32</text>
<rect x="260" y="382" width="378" height="34" rx="3" fill="#2563eb"/>
<text x="648" y="405" font-family="Arial" font-size="14" fill="#111827">4.11x</text>
<text x="24" y="457" font-family="Arial" font-size="14" fill="#374151">rocblas_plus_triton_score fp16</text>
<rect x="260" y="434" width="562" height="34" rx="3" fill="#059669"/>
<text x="832" y="457" font-family="Arial" font-size="14" fill="#111827">6.12x</text>
<text x="24" y="509" font-family="Arial" font-size="14" fill="#374151">rocblas_plus_triton_score bf16</text>
<rect x="260" y="486" width="570" height="34" rx="3" fill="#dc2626"/>
<text x="840" y="509" font-family="Arial" font-size="14" fill="#111827">6.2x</text>
<text x="24" y="561" font-family="Arial" font-size="14" fill="#374151">torch_scaled_mm_fp8 fp8</text>
<rect x="260" y="538" width="231" height="34" rx="3" fill="#7c3aed"/>
<text x="501" y="561" font-family="Arial" font-size="14" fill="#111827">2.52x</text>
<text x="24" y="613" font-family="Arial" font-size="14" fill="#374151">torch_compile_inductor fp32</text>
<rect x="260" y="590" width="111" height="34" rx="3" fill="#ea580c"/>
<text x="381" y="613" font-family="Arial" font-size="14" fill="#111827">1.21x</text>
<text x="24" y="665" font-family="Arial" font-size="14" fill="#374151">torch_compile_inductor fp16</text>
<rect x="260" y="642" width="140" height="34" rx="3" fill="#0891b2"/>
<text x="410" y="665" font-family="Arial" font-size="14" fill="#111827">1.53x</text>
<text x="24" y="717" font-family="Arial" font-size="14" fill="#374151">torch_compile_inductor bf16</text>
<rect x="260" y="694" width="138" height="34" rx="3" fill="#2563eb"/>
<text x="408" y="717" font-family="Arial" font-size="14" fill="#111827">1.51x</text>
<text x="24" y="769" font-family="Arial" font-size="14" fill="#374151">rocm_graph_capture fp32</text>
<rect x="260" y="746" width="90" height="34" rx="3" fill="#059669"/>
<text x="360" y="769" font-family="Arial" font-size="14" fill="#111827">0.982x</text>
<text x="24" y="821" font-family="Arial" font-size="14" fill="#374151">rocm_graph_capture fp16</text>
<rect x="260" y="798" width="93" height="34" rx="3" fill="#dc2626"/>
<text x="363" y="821" font-family="Arial" font-size="14" fill="#111827">1.02x</text>
<text x="24" y="873" font-family="Arial" font-size="14" fill="#374151">rocm_graph_capture bf16</text>
<rect x="260" y="850" width="93" height="34" rx="3" fill="#7c3aed"/>
<text x="363" y="873" font-family="Arial" font-size="14" fill="#111827">1.02x</text>
</svg>