<svg xmlns="http://www.w3.org/2000/svg" width="920" height="924" viewBox="0 0 920 924">
<rect width="100%" height="100%" fill="#ffffff"/>
<text x="24" y="34" font-family="Arial" font-size="22" font-weight="700" fill="#111827">AMD Kernel Speedup</text>
<text x="24" y="93" font-family="Arial" font-size="14" fill="#374151">pytorch_eager fp32</text>
<rect x="260" y="70" width="94" height="34" rx="3" fill="#2563eb"/>
<text x="364" y="93" font-family="Arial" font-size="14" fill="#111827">1x</text>
<text x="24" y="145" font-family="Arial" font-size="14" fill="#374151">pytorch_eager fp16</text>
<rect x="260" y="122" width="97" height="34" rx="3" fill="#059669"/>
<text x="367" y="145" font-family="Arial" font-size="14" fill="#111827">1.04x</text>
<text x="24" y="197" font-family="Arial" font-size="14" fill="#374151">pytorch_eager bf16</text>
<rect x="260" y="174" width="94" height="34" rx="3" fill="#dc2626"/>
<text x="364" y="197" font-family="Arial" font-size="14" fill="#111827">1.01x</text>
<text x="24" y="249" font-family="Arial" font-size="14" fill="#374151">rocblas_precomputed_index fp32</text>
<rect x="260" y="226" width="179" height="34" rx="3" fill="#7c3aed"/>
<text x="449" y="249" font-family="Arial" font-size="14" fill="#111827">1.9x</text>
<text x="24" y="301" font-family="Arial" font-size="14" fill="#374151">rocblas_precomputed_index fp16</text>
<rect x="260" y="278" width="207" height="34" rx="3" fill="#ea580c"/>
<text x="477" y="301" font-family="Arial" font-size="14" fill="#111827">2.2x</text>
<text x="24" y="353" font-family="Arial" font-size="14" fill="#374151">rocblas_precomputed_index bf16</text>
<rect x="260" y="330" width="208" height="34" rx="3" fill="#0891b2"/>
<text x="478" y="353" font-family="Arial" font-size="14" fill="#111827">2.21x</text>
<text x="24" y="405" font-family="Arial" font-size="14" fill="#374151">rocblas_plus_triton_score fp32</text>
<rect x="260" y="382" width="385" height="34" rx="3" fill="#2563eb"/>
<text x="655" y="405" font-family="Arial" font-size="14" fill="#111827">4.1x</text>
<text x="24" y="457" font-family="Arial" font-size="14" fill="#374151">rocblas_plus_triton_score fp16</text>
<rect x="260" y="434" width="556" height="34" rx="3" fill="#059669"/>
<text x="826" y="457" font-family="Arial" font-size="14" fill="#111827">5.91x</text>
<text x="24" y="509" font-family="Arial" font-size="14" fill="#374151">rocblas_plus_triton_score bf16</text>
<rect x="260" y="486" width="570" height="34" rx="3" fill="#dc2626"/>
<text x="840" y="509" font-family="Arial" font-size="14" fill="#111827">6.05x</text>
<text x="24" y="561" font-family="Arial" font-size="14" fill="#374151">torch_scaled_mm_fp8 fp8</text>
<rect x="260" y="538" width="233" height="34" rx="3" fill="#7c3aed"/>
<text x="503" y="561" font-family="Arial" font-size="14" fill="#111827">2.48x</text>
<text x="24" y="613" font-family="Arial" font-size="14" fill="#374151">torch_compile_inductor fp32</text>
<rect x="260" y="590" width="112" height="34" rx="3" fill="#ea580c"/>
<text x="382" y="613" font-family="Arial" font-size="14" fill="#111827">1.2x</text>
<text x="24" y="665" font-family="Arial" font-size="14" fill="#374151">torch_compile_inductor fp16</text>
<rect x="260" y="642" width="142" height="34" rx="3" fill="#0891b2"/>
<text x="412" y="665" font-family="Arial" font-size="14" fill="#111827">1.51x</text>
<text x="24" y="717" font-family="Arial" font-size="14" fill="#374151">torch_compile_inductor bf16</text>
<rect x="260" y="694" width="140" height="34" rx="3" fill="#2563eb"/>
<text x="410" y="717" font-family="Arial" font-size="14" fill="#111827">1.49x</text>
<text x="24" y="769" font-family="Arial" font-size="14" fill="#374151">rocm_graph_capture fp32</text>
<rect x="260" y="746" width="92" height="34" rx="3" fill="#059669"/>
<text x="362" y="769" font-family="Arial" font-size="14" fill="#111827">0.984x</text>
<text x="24" y="821" font-family="Arial" font-size="14" fill="#374151">rocm_graph_capture fp16</text>
<rect x="260" y="798" width="97" height="34" rx="3" fill="#dc2626"/>
<text x="367" y="821" font-family="Arial" font-size="14" fill="#111827">1.04x</text>
<text x="24" y="873" font-family="Arial" font-size="14" fill="#374151">rocm_graph_capture bf16</text>
<rect x="260" y="850" width="93" height="34" rx="3" fill="#7c3aed"/>
<text x="363" y="873" font-family="Arial" font-size="14" fill="#111827">0.992x</text>
</svg>