<svg xmlns="http://www.w3.org/2000/svg" width="920" height="924" viewBox="0 0 920 924">
<rect width="100%" height="100%" fill="#ffffff"/>
<text x="24" y="34" font-family="Arial" font-size="22" font-weight="700" fill="#111827">AMD Kernel Latency</text>
<text x="24" y="93" font-family="Arial" font-size="14" fill="#374151">pytorch_eager fp32</text>
<rect x="260" y="70" width="559" height="34" rx="3" fill="#2563eb"/>
<text x="829" y="93" font-family="Arial" font-size="14" fill="#111827">6.45 ms</text>
<text x="24" y="145" font-family="Arial" font-size="14" fill="#374151">pytorch_eager fp16</text>
<rect x="260" y="122" width="529" height="34" rx="3" fill="#059669"/>
<text x="799" y="145" font-family="Arial" font-size="14" fill="#111827">6.1 ms</text>
<text x="24" y="197" font-family="Arial" font-size="14" fill="#374151">pytorch_eager bf16</text>
<rect x="260" y="174" width="556" height="34" rx="3" fill="#dc2626"/>
<text x="826" y="197" font-family="Arial" font-size="14" fill="#111827">6.41 ms</text>
<text x="24" y="249" font-family="Arial" font-size="14" fill="#374151">rocblas_precomputed_index fp32</text>
<rect x="260" y="226" width="294" height="34" rx="3" fill="#7c3aed"/>
<text x="564" y="249" font-family="Arial" font-size="14" fill="#111827">3.39 ms</text>
<text x="24" y="301" font-family="Arial" font-size="14" fill="#374151">rocblas_precomputed_index fp16</text>
<rect x="260" y="278" width="250" height="34" rx="3" fill="#ea580c"/>
<text x="520" y="301" font-family="Arial" font-size="14" fill="#111827">2.88 ms</text>
<text x="24" y="353" font-family="Arial" font-size="14" fill="#374151">rocblas_precomputed_index bf16</text>
<rect x="260" y="330" width="249" height="34" rx="3" fill="#0891b2"/>
<text x="519" y="353" font-family="Arial" font-size="14" fill="#111827">2.87 ms</text>
<text x="24" y="405" font-family="Arial" font-size="14" fill="#374151">rocblas_plus_triton_score fp32</text>
<rect x="260" y="382" width="136" height="34" rx="3" fill="#2563eb"/>
<text x="406" y="405" font-family="Arial" font-size="14" fill="#111827">1.57 ms</text>
<text x="24" y="457" font-family="Arial" font-size="14" fill="#374151">rocblas_plus_triton_score fp16</text>
<rect x="260" y="434" width="91" height="34" rx="3" fill="#059669"/>
<text x="361" y="457" font-family="Arial" font-size="14" fill="#111827">1.05 ms</text>
<text x="24" y="509" font-family="Arial" font-size="14" fill="#374151">rocblas_plus_triton_score bf16</text>
<rect x="260" y="486" width="90" height="34" rx="3" fill="#dc2626"/>
<text x="360" y="509" font-family="Arial" font-size="14" fill="#111827">1.04 ms</text>
<text x="24" y="561" font-family="Arial" font-size="14" fill="#374151">torch_scaled_mm_fp8 fp8</text>
<rect x="260" y="538" width="222" height="34" rx="3" fill="#7c3aed"/>
<text x="492" y="561" font-family="Arial" font-size="14" fill="#111827">2.56 ms</text>
<text x="24" y="613" font-family="Arial" font-size="14" fill="#374151">torch_compile_inductor fp32</text>
<rect x="260" y="590" width="461" height="34" rx="3" fill="#ea580c"/>
<text x="731" y="613" font-family="Arial" font-size="14" fill="#111827">5.31 ms</text>
<text x="24" y="665" font-family="Arial" font-size="14" fill="#374151">torch_compile_inductor fp16</text>
<rect x="260" y="642" width="366" height="34" rx="3" fill="#0891b2"/>
<text x="636" y="665" font-family="Arial" font-size="14" fill="#111827">4.21 ms</text>
<text x="24" y="717" font-family="Arial" font-size="14" fill="#374151">torch_compile_inductor bf16</text>
<rect x="260" y="694" width="370" height="34" rx="3" fill="#2563eb"/>
<text x="640" y="717" font-family="Arial" font-size="14" fill="#111827">4.27 ms</text>
<text x="24" y="769" font-family="Arial" font-size="14" fill="#374151">rocm_graph_capture fp32</text>
<rect x="260" y="746" width="570" height="34" rx="3" fill="#059669"/>
<text x="840" y="769" font-family="Arial" font-size="14" fill="#111827">6.56 ms</text>
<text x="24" y="821" font-family="Arial" font-size="14" fill="#374151">rocm_graph_capture fp16</text>
<rect x="260" y="798" width="551" height="34" rx="3" fill="#dc2626"/>
<text x="821" y="821" font-family="Arial" font-size="14" fill="#111827">6.34 ms</text>
<text x="24" y="873" font-family="Arial" font-size="14" fill="#374151">rocm_graph_capture bf16</text>
<rect x="260" y="850" width="550" height="34" rx="3" fill="#7c3aed"/>
<text x="820" y="873" font-family="Arial" font-size="14" fill="#111827">6.33 ms</text>
</svg>