<svg xmlns="http://www.w3.org/2000/svg" width="920" height="404" viewBox="0 0 920 404">
<rect width="100%" height="100%" fill="#ffffff"/>
<text x="24" y="34" font-family="Arial" font-size="22" font-weight="700" fill="#111827">Telemetry Model Metrics</text>
<text x="24" y="93" font-family="Arial" font-size="14" fill="#374151">accuracy</text>
<rect x="250" y="70" width="523" height="34" rx="3" fill="#2563eb"/>
<text x="783" y="93" font-family="Arial" font-size="14" fill="#111827">93.4%</text>
<text x="24" y="145" font-family="Arial" font-size="14" fill="#374151">precision</text>
<rect x="250" y="122" width="181" height="34" rx="3" fill="#059669"/>
<text x="441" y="145" font-family="Arial" font-size="14" fill="#111827">32.4%</text>
<text x="24" y="197" font-family="Arial" font-size="14" fill="#374151">recall</text>
<rect x="250" y="174" width="485" height="34" rx="3" fill="#dc2626"/>
<text x="745" y="197" font-family="Arial" font-size="14" fill="#111827">86.8%</text>
<text x="24" y="249" font-family="Arial" font-size="14" fill="#374151">f1</text>
<rect x="250" y="226" width="264" height="34" rx="3" fill="#7c3aed"/>
<text x="524" y="249" font-family="Arial" font-size="14" fill="#111827">47.2%</text>
<text x="24" y="301" font-family="Arial" font-size="14" fill="#374151">ROC-AUC</text>
<rect x="250" y="278" width="543" height="34" rx="3" fill="#ea580c"/>
<text x="803" y="301" font-family="Arial" font-size="14" fill="#111827">97.1%</text>
<text x="24" y="353" font-family="Arial" font-size="14" fill="#374151">PR-AUC</text>
<rect x="250" y="330" width="394" height="34" rx="3" fill="#0891b2"/>
<text x="654" y="353" font-family="Arial" font-size="14" fill="#111827">70.4%</text>
</svg>