<svg xmlns="http://www.w3.org/2000/svg" width="1100" height="420" viewBox="0 0 1100 420">
<rect width="100%" height="100%" fill="white"/>
<text x="40" y="32" font-family="Arial" font-size="22" font-weight="700">ROCm fused rerank latency</text>
<line x1="90" y1="50" x2="90" y2="300" stroke="#333"/>
<line x1="90" y1="300" x2="1065" y2="300" stroke="#333"/>
<rect x="93.1" y="287.5" width="11.7" height="12.5" fill="#1f77b4"/>
<text x="99.0" y="281.5" font-family="Arial" font-size="10" text-anchor="middle">0.4</text>
<text x="99.0" y="314" font-family="Arial" font-size="9" text-anchor="end" transform="rotate(-45 99.0 314)">fp32 b1 n10k d384</text>
<rect x="111.1" y="287.1" width="11.7" height="12.9" fill="#2ca02c"/>
<text x="116.9" y="281.1" font-family="Arial" font-size="10" text-anchor="middle">0.4</text>
<text x="116.9" y="314" font-family="Arial" font-size="9" text-anchor="end" transform="rotate(-45 116.9 314)">fp16 b1 n10k d384</text>
<rect x="129.1" y="286.9" width="11.7" height="13.1" fill="#9467bd"/>
<text x="134.9" y="280.9" font-family="Arial" font-size="10" text-anchor="middle">0.4</text>
<text x="134.9" y="314" font-family="Arial" font-size="9" text-anchor="end" transform="rotate(-45 134.9 314)">bf16 b1 n10k d384</text>
<rect x="147.0" y="288.3" width="11.7" height="11.7" fill="#1f77b4"/>
<text x="152.9" y="282.3" font-family="Arial" font-size="10" text-anchor="middle">0.3</text>
<text x="152.9" y="314" font-family="Arial" font-size="9" text-anchor="end" transform="rotate(-45 152.9 314)">fp32 b8 n10k d384</text>
<rect x="165.0" y="287.6" width="11.7" height="12.4" fill="#2ca02c"/>
<text x="170.8" y="281.6" font-family="Arial" font-size="10" text-anchor="middle">0.3</text>
<text x="170.8" y="314" font-family="Arial" font-size="9" text-anchor="end" transform="rotate(-45 170.8 314)">fp16 b8 n10k d384</text>
<rect x="183.0" y="280.3" width="11.7" height="19.7" fill="#9467bd"/>
<text x="188.8" y="274.3" font-family="Arial" font-size="10" text-anchor="middle">0.6</text>
<text x="188.8" y="314" font-family="Arial" font-size="9" text-anchor="end" transform="rotate(-45 188.8 314)">bf16 b8 n10k d384</text>
<rect x="200.9" y="279.1" width="11.7" height="20.9" fill="#1f77b4"/>
<text x="206.8" y="273.1" font-family="Arial" font-size="10" text-anchor="middle">0.6</text>
<text x="206.8" y="314" font-family="Arial" font-size="9" text-anchor="end" transform="rotate(-45 206.8 314)">fp32 b32 n10k d384</text>
<rect x="218.9" y="270.3" width="11.7" height="29.7" fill="#2ca02c"/>
<text x="224.7" y="264.3" font-family="Arial" font-size="10" text-anchor="middle">0.8</text>
<text x="224.7" y="314" font-family="Arial" font-size="9" text-anchor="end" transform="rotate(-45 224.7 314)">fp16 b32 n10k d384</text>
<rect x="236.8" y="260.4" width="11.7" height="39.6" fill="#9467bd"/>
<text x="242.7" y="254.4" font-family="Arial" font-size="10" text-anchor="middle">1.1</text>
<text x="242.7" y="314" font-family="Arial" font-size="9" text-anchor="end" transform="rotate(-45 242.7 314)">bf16 b32 n10k d384</text>
<rect x="254.8" y="283.8" width="11.7" height="16.2" fill="#1f77b4"/>
<text x="260.6" y="277.8" font-family="Arial" font-size="10" text-anchor="middle">0.5</text>
<text x="260.6" y="314" font-family="Arial" font-size="9" text-anchor="end" transform="rotate(-45 260.6 314)">fp32 b1 n100k d384</text>
<rect x="272.8" y="282.4" width="11.7" height="17.6" fill="#2ca02c"/>
<text x="278.6" y="276.4" font-family="Arial" font-size="10" text-anchor="middle">0.5</text>
<text x="278.6" y="314" font-family="Arial" font-size="9" text-anchor="end" transform="rotate(-45 278.6 314)">fp16 b1 n100k d384</text>
<rect x="290.7" y="277.2" width="11.7" height="22.8" fill="#9467bd"/>
<text x="296.6" y="271.2" font-family="Arial" font-size="10" text-anchor="middle">0.6</text>
<text x="296.6" y="314" font-family="Arial" font-size="9" text-anchor="end" transform="rotate(-45 296.6 314)">bf16 b1 n100k d384</text>
<rect x="308.7" y="282.7" width="11.7" height="17.3" fill="#1f77b4"/>
<text x="314.5" y="276.7" font-family="Arial" font-size="10" text-anchor="middle">0.5</text>
<text x="314.5" y="314" font-family="Arial" font-size="9" text-anchor="end" transform="rotate(-45 314.5 314)">fp32 b8 n100k d384</text>
<rect x="326.7" y="281.0" width="11.7" height="19.0" fill="#2ca02c"/>
<text x="332.5" y="275.0" font-family="Arial" font-size="10" text-anchor="middle">0.5</text>
<text x="332.5" y="314" font-family="Arial" font-size="9" text-anchor="end" transform="rotate(-45 332.5 314)">fp16 b8 n100k d384</text>
<rect x="344.6" y="277.6" width="11.7" height="22.4" fill="#9467bd"/>
<text x="350.5" y="271.6" font-family="Arial" font-size="10" text-anchor="middle">0.6</text>
<text x="350.5" y="314" font-family="Arial" font-size="9" text-anchor="end" transform="rotate(-45 350.5 314)">bf16 b8 n100k d384</text>
<rect x="362.6" y="276.6" width="11.7" height="23.4" fill="#1f77b4"/>
<text x="368.4" y="270.6" font-family="Arial" font-size="10" text-anchor="middle">0.7</text>
<text x="368.4" y="314" font-family="Arial" font-size="9" text-anchor="end" transform="rotate(-45 368.4 314)">fp32 b32 n100k d384</text>
<rect x="380.6" y="276.2" width="11.7" height="23.8" fill="#2ca02c"/>
<text x="386.4" y="270.2" font-family="Arial" font-size="10" text-anchor="middle">0.7</text>
<text x="386.4" y="314" font-family="Arial" font-size="9" text-anchor="end" transform="rotate(-45 386.4 314)">fp16 b32 n100k d384</text>
<rect x="398.5" y="274.4" width="11.7" height="25.6" fill="#9467bd"/>
<text x="404.4" y="268.4" font-family="Arial" font-size="10" text-anchor="middle">0.7</text>
<text x="404.4" y="314" font-family="Arial" font-size="9" text-anchor="end" transform="rotate(-45 404.4 314)">bf16 b32 n100k d384</text>
<rect x="416.5" y="218.5" width="11.7" height="81.5" fill="#1f77b4"/>
<text x="422.3" y="212.5" font-family="Arial" font-size="10" text-anchor="middle">2.3</text>
<text x="422.3" y="314" font-family="Arial" font-size="9" text-anchor="end" transform="rotate(-45 422.3 314)">fp32 b1 n1000k d384</text>
<rect x="434.4" y="220.4" width="11.7" height="79.6" fill="#2ca02c"/>
<text x="440.3" y="214.4" font-family="Arial" font-size="10" text-anchor="middle">2.2</text>
<text x="440.3" y="314" font-family="Arial" font-size="9" text-anchor="end" transform="rotate(-45 440.3 314)">fp16 b1 n1000k d384</text>
<rect x="452.4" y="216.8" width="11.7" height="83.2" fill="#9467bd"/>
<text x="458.2" y="210.8" font-family="Arial" font-size="10" text-anchor="middle">2.3</text>
<text x="458.2" y="314" font-family="Arial" font-size="9" text-anchor="end" transform="rotate(-45 458.2 314)">bf16 b1 n1000k d384</text>
<rect x="470.4" y="201.4" width="11.7" height="98.6" fill="#1f77b4"/>
<text x="476.2" y="195.4" font-family="Arial" font-size="10" text-anchor="middle">2.8</text>
<text x="476.2" y="314" font-family="Arial" font-size="9" text-anchor="end" transform="rotate(-45 476.2 314)">fp32 b8 n1000k d384</text>
<rect x="488.3" y="203.7" width="11.7" height="96.3" fill="#2ca02c"/>
<text x="494.2" y="197.7" font-family="Arial" font-size="10" text-anchor="middle">2.7</text>
<text x="494.2" y="314" font-family="Arial" font-size="9" text-anchor="end" transform="rotate(-45 494.2 314)">fp16 b8 n1000k d384</text>
<rect x="506.3" y="201.5" width="11.7" height="98.5" fill="#9467bd"/>
<text x="512.1" y="195.5" font-family="Arial" font-size="10" text-anchor="middle">2.8</text>
<text x="512.1" y="314" font-family="Arial" font-size="9" text-anchor="end" transform="rotate(-45 512.1 314)">bf16 b8 n1000k d384</text>
<rect x="524.3" y="131.6" width="11.7" height="168.4" fill="#1f77b4"/>
<text x="530.1" y="125.6" font-family="Arial" font-size="10" text-anchor="middle">4.7</text>
<text x="530.1" y="314" font-family="Arial" font-size="9" text-anchor="end" transform="rotate(-45 530.1 314)">fp32 b32 n1000k d384</text>
<rect x="542.2" y="136.1" width="11.7" height="163.9" fill="#2ca02c"/>
<text x="548.1" y="130.1" font-family="Arial" font-size="10" text-anchor="middle">4.6</text>
<text x="548.1" y="314" font-family="Arial" font-size="9" text-anchor="end" transform="rotate(-45 548.1 314)">fp16 b32 n1000k d384</text>
<rect x="560.2" y="133.7" width="11.7" height="166.3" fill="#9467bd"/>
<text x="566.0" y="127.7" font-family="Arial" font-size="10" text-anchor="middle">4.7</text>
<text x="566.0" y="314" font-family="Arial" font-size="9" text-anchor="end" transform="rotate(-45 566.0 314)">bf16 b32 n1000k d384</text>
<rect x="578.1" y="287.0" width="11.7" height="13.0" fill="#1f77b4"/>
<text x="584.0" y="281.0" font-family="Arial" font-size="10" text-anchor="middle">0.4</text>
<text x="584.0" y="314" font-family="Arial" font-size="9" text-anchor="end" transform="rotate(-45 584.0 314)">fp32 b1 n10k d768</text>
<rect x="596.1" y="282.0" width="11.7" height="18.0" fill="#2ca02c"/>
<text x="601.9" y="276.0" font-family="Arial" font-size="10" text-anchor="middle">0.5</text>
<text x="601.9" y="314" font-family="Arial" font-size="9" text-anchor="end" transform="rotate(-45 601.9 314)">fp16 b1 n10k d768</text>
<rect x="614.1" y="263.1" width="11.7" height="36.9" fill="#9467bd"/>
<text x="619.9" y="257.1" font-family="Arial" font-size="10" text-anchor="middle">1.0</text>
<text x="619.9" y="314" font-family="Arial" font-size="9" text-anchor="end" transform="rotate(-45 619.9 314)">bf16 b1 n10k d768</text>
<rect x="632.0" y="286.2" width="11.7" height="13.8" fill="#1f77b4"/>
<text x="637.9" y="280.2" font-family="Arial" font-size="10" text-anchor="middle">0.4</text>
<text x="637.9" y="314" font-family="Arial" font-size="9" text-anchor="end" transform="rotate(-45 637.9 314)">fp32 b8 n10k d768</text>
<rect x="650.0" y="282.6" width="11.7" height="17.4" fill="#2ca02c"/>
<text x="655.8" y="276.6" font-family="Arial" font-size="10" text-anchor="middle">0.5</text>
<text x="655.8" y="314" font-family="Arial" font-size="9" text-anchor="end" transform="rotate(-45 655.8 314)">fp16 b8 n10k d768</text>
<rect x="668.0" y="270.6" width="11.7" height="29.4" fill="#9467bd"/>
<text x="673.8" y="264.6" font-family="Arial" font-size="10" text-anchor="middle">0.8</text>
<text x="673.8" y="314" font-family="Arial" font-size="9" text-anchor="end" transform="rotate(-45 673.8 314)">bf16 b8 n10k d768</text>
<rect x="685.9" y="282.8" width="11.7" height="17.2" fill="#1f77b4"/>
<text x="691.8" y="276.8" font-family="Arial" font-size="10" text-anchor="middle">0.5</text>
<text x="691.8" y="314" font-family="Arial" font-size="9" text-anchor="end" transform="rotate(-45 691.8 314)">fp32 b32 n10k d768</text>
<rect x="703.9" y="272.5" width="11.7" height="27.5" fill="#2ca02c"/>
<text x="709.7" y="266.5" font-family="Arial" font-size="10" text-anchor="middle">0.8</text>
<text x="709.7" y="314" font-family="Arial" font-size="9" text-anchor="end" transform="rotate(-45 709.7 314)">fp16 b32 n10k d768</text>
<rect x="721.8" y="260.5" width="11.7" height="39.5" fill="#9467bd"/>
<text x="727.7" y="254.5" font-family="Arial" font-size="10" text-anchor="middle">1.1</text>
<text x="727.7" y="314" font-family="Arial" font-size="9" text-anchor="end" transform="rotate(-45 727.7 314)">bf16 b32 n10k d768</text>
<rect x="739.8" y="278.4" width="11.7" height="21.6" fill="#1f77b4"/>
<text x="745.6" y="272.4" font-family="Arial" font-size="10" text-anchor="middle">0.6</text>
<text x="745.6" y="314" font-family="Arial" font-size="9" text-anchor="end" transform="rotate(-45 745.6 314)">fp32 b1 n100k d768</text>
<rect x="757.8" y="278.0" width="11.7" height="22.0" fill="#2ca02c"/>
<text x="763.6" y="272.0" font-family="Arial" font-size="10" text-anchor="middle">0.6</text>
<text x="763.6" y="314" font-family="Arial" font-size="9" text-anchor="end" transform="rotate(-45 763.6 314)">fp16 b1 n100k d768</text>
<rect x="775.7" y="275.0" width="11.7" height="25.0" fill="#9467bd"/>
<text x="781.6" y="269.0" font-family="Arial" font-size="10" text-anchor="middle">0.7</text>
<text x="781.6" y="314" font-family="Arial" font-size="9" text-anchor="end" transform="rotate(-45 781.6 314)">bf16 b1 n100k d768</text>
<rect x="793.7" y="276.6" width="11.7" height="23.4" fill="#1f77b4"/>
<text x="799.5" y="270.6" font-family="Arial" font-size="10" text-anchor="middle">0.7</text>
<text x="799.5" y="314" font-family="Arial" font-size="9" text-anchor="end" transform="rotate(-45 799.5 314)">fp32 b8 n100k d768</text>
<rect x="811.7" y="277.0" width="11.7" height="23.0" fill="#2ca02c"/>
<text x="817.5" y="271.0" font-family="Arial" font-size="10" text-anchor="middle">0.6</text>
<text x="817.5" y="314" font-family="Arial" font-size="9" text-anchor="end" transform="rotate(-45 817.5 314)">fp16 b8 n100k d768</text>
<rect x="829.6" y="273.8" width="11.7" height="26.2" fill="#9467bd"/>
<text x="835.5" y="267.8" font-family="Arial" font-size="10" text-anchor="middle">0.7</text>
<text x="835.5" y="314" font-family="Arial" font-size="9" text-anchor="end" transform="rotate(-45 835.5 314)">bf16 b8 n100k d768</text>
<rect x="847.6" y="270.5" width="11.7" height="29.5" fill="#1f77b4"/>
<text x="853.4" y="264.5" font-family="Arial" font-size="10" text-anchor="middle">0.8</text>
<text x="853.4" y="314" font-family="Arial" font-size="9" text-anchor="end" transform="rotate(-45 853.4 314)">fp32 b32 n100k d768</text>
<rect x="865.6" y="271.6" width="11.7" height="28.4" fill="#2ca02c"/>
<text x="871.4" y="265.6" font-family="Arial" font-size="10" text-anchor="middle">0.8</text>
<text x="871.4" y="314" font-family="Arial" font-size="9" text-anchor="end" transform="rotate(-45 871.4 314)">fp16 b32 n100k d768</text>
<rect x="883.5" y="270.8" width="11.7" height="29.2" fill="#9467bd"/>
<text x="889.4" y="264.8" font-family="Arial" font-size="10" text-anchor="middle">0.8</text>
<text x="889.4" y="314" font-family="Arial" font-size="9" text-anchor="end" transform="rotate(-45 889.4 314)">bf16 b32 n100k d768</text>
<rect x="901.5" y="161.5" width="11.7" height="138.5" fill="#1f77b4"/>
<text x="907.3" y="155.5" font-family="Arial" font-size="10" text-anchor="middle">3.9</text>
<text x="907.3" y="314" font-family="Arial" font-size="9" text-anchor="end" transform="rotate(-45 907.3 314)">fp32 b1 n1000k d768</text>
<rect x="919.4" y="169.6" width="11.7" height="130.4" fill="#2ca02c"/>
<text x="925.3" y="163.6" font-family="Arial" font-size="10" text-anchor="middle">3.7</text>
<text x="925.3" y="314" font-family="Arial" font-size="9" text-anchor="end" transform="rotate(-45 925.3 314)">fp16 b1 n1000k d768</text>
<rect x="937.4" y="159.3" width="11.7" height="140.7" fill="#9467bd"/>
<text x="943.2" y="153.3" font-family="Arial" font-size="10" text-anchor="middle">4.0</text>
<text x="943.2" y="314" font-family="Arial" font-size="9" text-anchor="end" transform="rotate(-45 943.2 314)">bf16 b1 n1000k d768</text>
<rect x="955.4" y="143.2" width="11.7" height="156.8" fill="#1f77b4"/>
<text x="961.2" y="137.2" font-family="Arial" font-size="10" text-anchor="middle">4.4</text>
<text x="961.2" y="314" font-family="Arial" font-size="9" text-anchor="end" transform="rotate(-45 961.2 314)">fp32 b8 n1000k d768</text>
<rect x="973.3" y="151.0" width="11.7" height="149.0" fill="#2ca02c"/>
<text x="979.2" y="145.0" font-family="Arial" font-size="10" text-anchor="middle">4.2</text>
<text x="979.2" y="314" font-family="Arial" font-size="9" text-anchor="end" transform="rotate(-45 979.2 314)">fp16 b8 n1000k d768</text>
<rect x="991.3" y="148.2" width="11.7" height="151.8" fill="#9467bd"/>
<text x="997.1" y="142.2" font-family="Arial" font-size="10" text-anchor="middle">4.3</text>
<text x="997.1" y="314" font-family="Arial" font-size="9" text-anchor="end" transform="rotate(-45 997.1 314)">bf16 b8 n1000k d768</text>
<rect x="1009.3" y="70.0" width="11.7" height="230.0" fill="#1f77b4"/>
<text x="1015.1" y="64.0" font-family="Arial" font-size="10" text-anchor="middle">6.5</text>
<text x="1015.1" y="314" font-family="Arial" font-size="9" text-anchor="end" transform="rotate(-45 1015.1 314)">fp32 b32 n1000k d768</text>
<rect x="1027.2" y="79.8" width="11.7" height="220.2" fill="#2ca02c"/>
<text x="1033.1" y="73.8" font-family="Arial" font-size="10" text-anchor="middle">6.2</text>
<text x="1033.1" y="314" font-family="Arial" font-size="9" text-anchor="end" transform="rotate(-45 1033.1 314)">fp16 b32 n1000k d768</text>
<rect x="1045.2" y="77.2" width="11.7" height="222.8" fill="#9467bd"/>
<text x="1051.0" y="71.2" font-family="Arial" font-size="10" text-anchor="middle">6.3</text>
<text x="1051.0" y="314" font-family="Arial" font-size="9" text-anchor="end" transform="rotate(-45 1051.0 314)">bf16 b32 n1000k d768</text>
</svg>
