<svg xmlns="http://www.w3.org/2000/svg" width="1100" height="420" viewBox="0 0 1100 420">
<rect width="100%" height="100%" fill="white"/>
<text x="40" y="32" font-family="Arial" font-size="22" font-weight="700">ROCm fused rerank latency</text>
<line x1="90" y1="50" x2="90" y2="300" stroke="#333"/>
<line x1="90" y1="300" x2="1065" y2="300" stroke="#333"/>
<rect x="93.1" y="287.7" width="11.7" height="12.3" fill="#1f77b4"/>
<text x="99.0" y="281.7" font-family="Arial" font-size="10" text-anchor="middle">0.3</text>
<text x="99.0" y="314" font-family="Arial" font-size="9" text-anchor="end" transform="rotate(-45 99.0 314)">fp32 b1 n10k d384</text>
<rect x="111.1" y="286.5" width="11.7" height="13.5" fill="#2ca02c"/>
<text x="116.9" y="280.5" font-family="Arial" font-size="10" text-anchor="middle">0.4</text>
<text x="116.9" y="314" font-family="Arial" font-size="9" text-anchor="end" transform="rotate(-45 116.9 314)">fp16 b1 n10k d384</text>
<rect x="129.1" y="286.5" width="11.7" height="13.5" fill="#9467bd"/>
<text x="134.9" y="280.5" font-family="Arial" font-size="10" text-anchor="middle">0.4</text>
<text x="134.9" y="314" font-family="Arial" font-size="9" text-anchor="end" transform="rotate(-45 134.9 314)">bf16 b1 n10k d384</text>
<rect x="147.0" y="288.4" width="11.7" height="11.6" fill="#1f77b4"/>
<text x="152.9" y="282.4" font-family="Arial" font-size="10" text-anchor="middle">0.3</text>
<text x="152.9" y="314" font-family="Arial" font-size="9" text-anchor="end" transform="rotate(-45 152.9 314)">fp32 b8 n10k d384</text>
<rect x="165.0" y="287.8" width="11.7" height="12.2" fill="#2ca02c"/>
<text x="170.8" y="281.8" font-family="Arial" font-size="10" text-anchor="middle">0.3</text>
<text x="170.8" y="314" font-family="Arial" font-size="9" text-anchor="end" transform="rotate(-45 170.8 314)">fp16 b8 n10k d384</text>
<rect x="183.0" y="282.6" width="11.7" height="17.4" fill="#9467bd"/>
<text x="188.8" y="276.6" font-family="Arial" font-size="10" text-anchor="middle">0.5</text>
<text x="188.8" y="314" font-family="Arial" font-size="9" text-anchor="end" transform="rotate(-45 188.8 314)">bf16 b8 n10k d384</text>
<rect x="200.9" y="277.3" width="11.7" height="22.7" fill="#1f77b4"/>
<text x="206.8" y="271.3" font-family="Arial" font-size="10" text-anchor="middle">0.6</text>
<text x="206.8" y="314" font-family="Arial" font-size="9" text-anchor="end" transform="rotate(-45 206.8 314)">fp32 b32 n10k d384</text>
<rect x="218.9" y="264.1" width="11.7" height="35.9" fill="#2ca02c"/>
<text x="224.7" y="258.1" font-family="Arial" font-size="10" text-anchor="middle">1.0</text>
<text x="224.7" y="314" font-family="Arial" font-size="9" text-anchor="end" transform="rotate(-45 224.7 314)">fp16 b32 n10k d384</text>
<rect x="236.8" y="261.2" width="11.7" height="38.8" fill="#9467bd"/>
<text x="242.7" y="255.2" font-family="Arial" font-size="10" text-anchor="middle">1.1</text>
<text x="242.7" y="314" font-family="Arial" font-size="9" text-anchor="end" transform="rotate(-45 242.7 314)">bf16 b32 n10k d384</text>
<rect x="254.8" y="284.1" width="11.7" height="15.9" fill="#1f77b4"/>
<text x="260.6" y="278.1" font-family="Arial" font-size="10" text-anchor="middle">0.5</text>
<text x="260.6" y="314" font-family="Arial" font-size="9" text-anchor="end" transform="rotate(-45 260.6 314)">fp32 b1 n100k d384</text>
<rect x="272.8" y="282.3" width="11.7" height="17.7" fill="#2ca02c"/>
<text x="278.6" y="276.3" font-family="Arial" font-size="10" text-anchor="middle">0.5</text>
<text x="278.6" y="314" font-family="Arial" font-size="9" text-anchor="end" transform="rotate(-45 278.6 314)">fp16 b1 n100k d384</text>
<rect x="290.7" y="277.3" width="11.7" height="22.7" fill="#9467bd"/>
<text x="296.6" y="271.3" font-family="Arial" font-size="10" text-anchor="middle">0.6</text>
<text x="296.6" y="314" font-family="Arial" font-size="9" text-anchor="end" transform="rotate(-45 296.6 314)">bf16 b1 n100k d384</text>
<rect x="308.7" y="283.0" width="11.7" height="17.0" fill="#1f77b4"/>
<text x="314.5" y="277.0" font-family="Arial" font-size="10" text-anchor="middle">0.5</text>
<text x="314.5" y="314" font-family="Arial" font-size="9" text-anchor="end" transform="rotate(-45 314.5 314)">fp32 b8 n100k d384</text>
<rect x="326.7" y="280.4" width="11.7" height="19.6" fill="#2ca02c"/>
<text x="332.5" y="274.4" font-family="Arial" font-size="10" text-anchor="middle">0.6</text>
<text x="332.5" y="314" font-family="Arial" font-size="9" text-anchor="end" transform="rotate(-45 332.5 314)">fp16 b8 n100k d384</text>
<rect x="344.6" y="267.8" width="11.7" height="32.2" fill="#9467bd"/>
<text x="350.5" y="261.8" font-family="Arial" font-size="10" text-anchor="middle">0.9</text>
<text x="350.5" y="314" font-family="Arial" font-size="9" text-anchor="end" transform="rotate(-45 350.5 314)">bf16 b8 n100k d384</text>
<rect x="362.6" y="276.7" width="11.7" height="23.3" fill="#1f77b4"/>
<text x="368.4" y="270.7" font-family="Arial" font-size="10" text-anchor="middle">0.7</text>
<text x="368.4" y="314" font-family="Arial" font-size="9" text-anchor="end" transform="rotate(-45 368.4 314)">fp32 b32 n100k d384</text>
<rect x="380.6" y="276.2" width="11.7" height="23.8" fill="#2ca02c"/>
<text x="386.4" y="270.2" font-family="Arial" font-size="10" text-anchor="middle">0.7</text>
<text x="386.4" y="314" font-family="Arial" font-size="9" text-anchor="end" transform="rotate(-45 386.4 314)">fp16 b32 n100k d384</text>
<rect x="398.5" y="272.3" width="11.7" height="27.7" fill="#9467bd"/>
<text x="404.4" y="266.3" font-family="Arial" font-size="10" text-anchor="middle">0.8</text>
<text x="404.4" y="314" font-family="Arial" font-size="9" text-anchor="end" transform="rotate(-45 404.4 314)">bf16 b32 n100k d384</text>
<rect x="416.5" y="219.5" width="11.7" height="80.5" fill="#1f77b4"/>
<text x="422.3" y="213.5" font-family="Arial" font-size="10" text-anchor="middle">2.3</text>
<text x="422.3" y="314" font-family="Arial" font-size="9" text-anchor="end" transform="rotate(-45 422.3 314)">fp32 b1 n1000k d384</text>
<rect x="434.4" y="218.6" width="11.7" height="81.4" fill="#2ca02c"/>
<text x="440.3" y="212.6" font-family="Arial" font-size="10" text-anchor="middle">2.3</text>
<text x="440.3" y="314" font-family="Arial" font-size="9" text-anchor="end" transform="rotate(-45 440.3 314)">fp16 b1 n1000k d384</text>
<rect x="452.4" y="217.3" width="11.7" height="82.7" fill="#9467bd"/>
<text x="458.2" y="211.3" font-family="Arial" font-size="10" text-anchor="middle">2.3</text>
<text x="458.2" y="314" font-family="Arial" font-size="9" text-anchor="end" transform="rotate(-45 458.2 314)">bf16 b1 n1000k d384</text>
<rect x="470.4" y="203.6" width="11.7" height="96.4" fill="#1f77b4"/>
<text x="476.2" y="197.6" font-family="Arial" font-size="10" text-anchor="middle">2.7</text>
<text x="476.2" y="314" font-family="Arial" font-size="9" text-anchor="end" transform="rotate(-45 476.2 314)">fp32 b8 n1000k d384</text>
<rect x="488.3" y="204.7" width="11.7" height="95.3" fill="#2ca02c"/>
<text x="494.2" y="198.7" font-family="Arial" font-size="10" text-anchor="middle">2.7</text>
<text x="494.2" y="314" font-family="Arial" font-size="9" text-anchor="end" transform="rotate(-45 494.2 314)">fp16 b8 n1000k d384</text>
<rect x="506.3" y="202.8" width="11.7" height="97.2" fill="#9467bd"/>
<text x="512.1" y="196.8" font-family="Arial" font-size="10" text-anchor="middle">2.8</text>
<text x="512.1" y="314" font-family="Arial" font-size="9" text-anchor="end" transform="rotate(-45 512.1 314)">bf16 b8 n1000k d384</text>
<rect x="524.3" y="133.6" width="11.7" height="166.4" fill="#1f77b4"/>
<text x="530.1" y="127.6" font-family="Arial" font-size="10" text-anchor="middle">4.7</text>
<text x="530.1" y="314" font-family="Arial" font-size="9" text-anchor="end" transform="rotate(-45 530.1 314)">fp32 b32 n1000k d384</text>
<rect x="542.2" y="135.0" width="11.7" height="165.0" fill="#2ca02c"/>
<text x="548.1" y="129.0" font-family="Arial" font-size="10" text-anchor="middle">4.7</text>
<text x="548.1" y="314" font-family="Arial" font-size="9" text-anchor="end" transform="rotate(-45 548.1 314)">fp16 b32 n1000k d384</text>
<rect x="560.2" y="132.9" width="11.7" height="167.1" fill="#9467bd"/>
<text x="566.0" y="126.9" font-family="Arial" font-size="10" text-anchor="middle">4.7</text>
<text x="566.0" y="314" font-family="Arial" font-size="9" text-anchor="end" transform="rotate(-45 566.0 314)">bf16 b32 n1000k d384</text>
<rect x="578.1" y="286.7" width="11.7" height="13.3" fill="#1f77b4"/>
<text x="584.0" y="280.7" font-family="Arial" font-size="10" text-anchor="middle">0.4</text>
<text x="584.0" y="314" font-family="Arial" font-size="9" text-anchor="end" transform="rotate(-45 584.0 314)">fp32 b1 n10k d768</text>
<rect x="596.1" y="281.9" width="11.7" height="18.1" fill="#2ca02c"/>
<text x="601.9" y="275.9" font-family="Arial" font-size="10" text-anchor="middle">0.5</text>
<text x="601.9" y="314" font-family="Arial" font-size="9" text-anchor="end" transform="rotate(-45 601.9 314)">fp16 b1 n10k d768</text>
<rect x="614.1" y="274.2" width="11.7" height="25.8" fill="#9467bd"/>
<text x="619.9" y="268.2" font-family="Arial" font-size="10" text-anchor="middle">0.7</text>
<text x="619.9" y="314" font-family="Arial" font-size="9" text-anchor="end" transform="rotate(-45 619.9 314)">bf16 b1 n10k d768</text>
<rect x="632.0" y="285.3" width="11.7" height="14.7" fill="#1f77b4"/>
<text x="637.9" y="279.3" font-family="Arial" font-size="10" text-anchor="middle">0.4</text>
<text x="637.9" y="314" font-family="Arial" font-size="9" text-anchor="end" transform="rotate(-45 637.9 314)">fp32 b8 n10k d768</text>
<rect x="650.0" y="283.4" width="11.7" height="16.6" fill="#2ca02c"/>
<text x="655.8" y="277.4" font-family="Arial" font-size="10" text-anchor="middle">0.5</text>
<text x="655.8" y="314" font-family="Arial" font-size="9" text-anchor="end" transform="rotate(-45 655.8 314)">fp16 b8 n10k d768</text>
<rect x="668.0" y="277.6" width="11.7" height="22.4" fill="#9467bd"/>
<text x="673.8" y="271.6" font-family="Arial" font-size="10" text-anchor="middle">0.6</text>
<text x="673.8" y="314" font-family="Arial" font-size="9" text-anchor="end" transform="rotate(-45 673.8 314)">bf16 b8 n10k d768</text>
<rect x="685.9" y="283.5" width="11.7" height="16.5" fill="#1f77b4"/>
<text x="691.8" y="277.5" font-family="Arial" font-size="10" text-anchor="middle">0.5</text>
<text x="691.8" y="314" font-family="Arial" font-size="9" text-anchor="end" transform="rotate(-45 691.8 314)">fp32 b32 n10k d768</text>
<rect x="703.9" y="277.3" width="11.7" height="22.7" fill="#2ca02c"/>
<text x="709.7" y="271.3" font-family="Arial" font-size="10" text-anchor="middle">0.6</text>
<text x="709.7" y="314" font-family="Arial" font-size="9" text-anchor="end" transform="rotate(-45 709.7 314)">fp16 b32 n10k d768</text>
<rect x="721.8" y="264.3" width="11.7" height="35.7" fill="#9467bd"/>
<text x="727.7" y="258.3" font-family="Arial" font-size="10" text-anchor="middle">1.0</text>
<text x="727.7" y="314" font-family="Arial" font-size="9" text-anchor="end" transform="rotate(-45 727.7 314)">bf16 b32 n10k d768</text>
<rect x="739.8" y="278.1" width="11.7" height="21.9" fill="#1f77b4"/>
<text x="745.6" y="272.1" font-family="Arial" font-size="10" text-anchor="middle">0.6</text>
<text x="745.6" y="314" font-family="Arial" font-size="9" text-anchor="end" transform="rotate(-45 745.6 314)">fp32 b1 n100k d768</text>
<rect x="757.8" y="278.0" width="11.7" height="22.0" fill="#2ca02c"/>
<text x="763.6" y="272.0" font-family="Arial" font-size="10" text-anchor="middle">0.6</text>
<text x="763.6" y="314" font-family="Arial" font-size="9" text-anchor="end" transform="rotate(-45 763.6 314)">fp16 b1 n100k d768</text>
<rect x="775.7" y="274.2" width="11.7" height="25.8" fill="#9467bd"/>
<text x="781.6" y="268.2" font-family="Arial" font-size="10" text-anchor="middle">0.7</text>
<text x="781.6" y="314" font-family="Arial" font-size="9" text-anchor="end" transform="rotate(-45 781.6 314)">bf16 b1 n100k d768</text>
<rect x="793.7" y="276.6" width="11.7" height="23.4" fill="#1f77b4"/>
<text x="799.5" y="270.6" font-family="Arial" font-size="10" text-anchor="middle">0.7</text>
<text x="799.5" y="314" font-family="Arial" font-size="9" text-anchor="end" transform="rotate(-45 799.5 314)">fp32 b8 n100k d768</text>
<rect x="811.7" y="276.3" width="11.7" height="23.7" fill="#2ca02c"/>
<text x="817.5" y="270.3" font-family="Arial" font-size="10" text-anchor="middle">0.7</text>
<text x="817.5" y="314" font-family="Arial" font-size="9" text-anchor="end" transform="rotate(-45 817.5 314)">fp16 b8 n100k d768</text>
<rect x="829.6" y="266.7" width="11.7" height="33.3" fill="#9467bd"/>
<text x="835.5" y="260.7" font-family="Arial" font-size="10" text-anchor="middle">0.9</text>
<text x="835.5" y="314" font-family="Arial" font-size="9" text-anchor="end" transform="rotate(-45 835.5 314)">bf16 b8 n100k d768</text>
<rect x="847.6" y="271.1" width="11.7" height="28.9" fill="#1f77b4"/>
<text x="853.4" y="265.1" font-family="Arial" font-size="10" text-anchor="middle">0.8</text>
<text x="853.4" y="314" font-family="Arial" font-size="9" text-anchor="end" transform="rotate(-45 853.4 314)">fp32 b32 n100k d768</text>
<rect x="865.6" y="271.4" width="11.7" height="28.6" fill="#2ca02c"/>
<text x="871.4" y="265.4" font-family="Arial" font-size="10" text-anchor="middle">0.8</text>
<text x="871.4" y="314" font-family="Arial" font-size="9" text-anchor="end" transform="rotate(-45 871.4 314)">fp16 b32 n100k d768</text>
<rect x="883.5" y="269.9" width="11.7" height="30.1" fill="#9467bd"/>
<text x="889.4" y="263.9" font-family="Arial" font-size="10" text-anchor="middle">0.9</text>
<text x="889.4" y="314" font-family="Arial" font-size="9" text-anchor="end" transform="rotate(-45 889.4 314)">bf16 b32 n100k d768</text>
<rect x="901.5" y="158.0" width="11.7" height="142.0" fill="#1f77b4"/>
<text x="907.3" y="152.0" font-family="Arial" font-size="10" text-anchor="middle">4.0</text>
<text x="907.3" y="314" font-family="Arial" font-size="9" text-anchor="end" transform="rotate(-45 907.3 314)">fp32 b1 n1000k d768</text>
<rect x="919.4" y="170.4" width="11.7" height="129.6" fill="#2ca02c"/>
<text x="925.3" y="164.4" font-family="Arial" font-size="10" text-anchor="middle">3.7</text>
<text x="925.3" y="314" font-family="Arial" font-size="9" text-anchor="end" transform="rotate(-45 925.3 314)">fp16 b1 n1000k d768</text>
<rect x="937.4" y="162.1" width="11.7" height="137.9" fill="#9467bd"/>
<text x="943.2" y="156.1" font-family="Arial" font-size="10" text-anchor="middle">3.9</text>
<text x="943.2" y="314" font-family="Arial" font-size="9" text-anchor="end" transform="rotate(-45 943.2 314)">bf16 b1 n1000k d768</text>
<rect x="955.4" y="143.4" width="11.7" height="156.6" fill="#1f77b4"/>
<text x="961.2" y="137.4" font-family="Arial" font-size="10" text-anchor="middle">4.4</text>
<text x="961.2" y="314" font-family="Arial" font-size="9" text-anchor="end" transform="rotate(-45 961.2 314)">fp32 b8 n1000k d768</text>
<rect x="973.3" y="150.7" width="11.7" height="149.3" fill="#2ca02c"/>
<text x="979.2" y="144.7" font-family="Arial" font-size="10" text-anchor="middle">4.2</text>
<text x="979.2" y="314" font-family="Arial" font-size="9" text-anchor="end" transform="rotate(-45 979.2 314)">fp16 b8 n1000k d768</text>
<rect x="991.3" y="149.7" width="11.7" height="150.3" fill="#9467bd"/>
<text x="997.1" y="143.7" font-family="Arial" font-size="10" text-anchor="middle">4.3</text>
<text x="997.1" y="314" font-family="Arial" font-size="9" text-anchor="end" transform="rotate(-45 997.1 314)">bf16 b8 n1000k d768</text>
<rect x="1009.3" y="70.0" width="11.7" height="230.0" fill="#1f77b4"/>
<text x="1015.1" y="64.0" font-family="Arial" font-size="10" text-anchor="middle">6.5</text>
<text x="1015.1" y="314" font-family="Arial" font-size="9" text-anchor="end" transform="rotate(-45 1015.1 314)">fp32 b32 n1000k d768</text>
<rect x="1027.2" y="81.9" width="11.7" height="218.1" fill="#2ca02c"/>
<text x="1033.1" y="75.9" font-family="Arial" font-size="10" text-anchor="middle">6.2</text>
<text x="1033.1" y="314" font-family="Arial" font-size="9" text-anchor="end" transform="rotate(-45 1033.1 314)">fp16 b32 n1000k d768</text>
<rect x="1045.2" y="71.0" width="11.7" height="229.0" fill="#9467bd"/>
<text x="1051.0" y="65.0" font-family="Arial" font-size="10" text-anchor="middle">6.5</text>
<text x="1051.0" y="314" font-family="Arial" font-size="9" text-anchor="end" transform="rotate(-45 1051.0 314)">bf16 b32 n1000k d768</text>
</svg>
