<svg xmlns="http://www.w3.org/2000/svg" width="1500" height="900" viewBox="0 0 1500 900" role="img" aria-labelledby="title desc">
  <title id="title">Industrial AI Investigation Assistant Architecture</title>
  <desc id="desc">Executive architecture diagram showing data sources flowing into a LangGraph multi-agent investigation engine, governance, and final recommendation with explainability, confidence, human approval, and AMD roadmap callouts.</desc>
  <defs>
    <style>
      .title{font:700 32px Arial,sans-serif;fill:#fff}
      .subtitle{font:500 15px Arial,sans-serif;fill:#dbeafe}
      .stage{font:800 14px Arial,sans-serif;fill:#64748b;letter-spacing:1.3px}
      .zone{font:700 15px Arial,sans-serif;fill:#475569;letter-spacing:.2px}
      .label{font:700 16px Arial,sans-serif;fill:#102a43}
      .brain{font:700 19px Arial,sans-serif;fill:#102a43}
      .small{font:500 13px Arial,sans-serif;fill:#334e68}
      .panelTitle{font:700 17px Arial,sans-serif;fill:#102a43}
      .panelItem{font:500 13px Arial,sans-serif;fill:#334e68}
      .roadmap{font:700 15px Arial,sans-serif;fill:#334e68}
      .arrow{stroke:#52606d;stroke-width:3;fill:none;marker-end:url(#arrow)}
      .dash{stroke:#7b8794;stroke-width:2;fill:none;stroke-dasharray:7 6;marker-end:url(#arrow)}
    </style>
    <marker id="arrow" markerWidth="12" markerHeight="12" refX="10" refY="6" orient="auto">
      <path d="M2,2 L10,6 L2,10 Z" fill="#52606d"/>
    </marker>
    <filter id="shadow" x="-10%" y="-10%" width="120%" height="130%">
      <feDropShadow dx="0" dy="8" stdDeviation="10" flood-color="#102a43" flood-opacity="0.16"/>
    </filter>
    <filter id="brainShadow" x="-12%" y="-14%" width="124%" height="135%">
      <feDropShadow dx="0" dy="14" stdDeviation="16" flood-color="#102a43" flood-opacity="0.26"/>
    </filter>
  </defs>

  <rect width="1500" height="900" fill="#f8fafc"/>
  <rect x="60" y="34" width="1380" height="94" rx="18" fill="#102a43"/>
  <text x="90" y="82" class="title">Industrial AI Investigation Assistant</text>
  <text x="90" y="110" class="subtitle">Explainable multi-agent copilot for industrial incident investigation, root cause analysis, and human-approved operational decisions.</text>

  <text x="92" y="165" class="stage">DATA SOURCES</text>
  <text x="380" y="165" class="stage">INVESTIGATION</text>
  <text x="835" y="625" class="stage">GOVERNANCE</text>
  <text x="1240" y="512" class="stage">OUTCOME</text>

  <rect x="315" y="176" width="805" height="400" rx="28" fill="#f0fdf4" stroke="#bbf7d0" stroke-width="1.5"/>
  <text x="345" y="205" class="zone">AI Investigation Layer</text>
  <rect x="1010" y="188" width="294" height="300" rx="24" fill="#fffbeb" stroke="#fde68a" stroke-width="1.4"/>
  <text x="1038" y="214" class="zone">Investigation Intelligence Layer</text>
  <rect x="800" y="636" width="470" height="164" rx="28" fill="#faf5ff" stroke="#e9d5ff" stroke-width="1.5"/>
  <text x="830" y="666" class="zone">Operational Governance Layer</text>

  <g filter="url(#shadow)">
    <rect x="70" y="205" width="210" height="82" rx="16" fill="#e8f3ff" stroke="#2b6cb0"/>
    <text x="95" y="239" class="label">Telemetry Stream</text>
    <text x="95" y="265" class="small">machine signals</text>

    <rect x="70" y="340" width="210" height="82" rx="16" fill="#e8f3ff" stroke="#2b6cb0"/>
    <text x="95" y="374" class="label">Vision Inspection</text>
    <text x="95" y="400" class="small">inspection images</text>

    <rect x="70" y="475" width="210" height="82" rx="16" fill="#e8f3ff" stroke="#2b6cb0"/>
    <text x="95" y="509" class="label">Event Stream</text>
    <text x="95" y="535" class="small">alerts + operator notes</text>
  </g>

  <g filter="url(#shadow)">
    <rect x="350" y="222" width="230" height="92" rx="16" fill="#dcfce7" stroke="#2f855a"/>
    <text x="377" y="254" class="label">Telemetry Agent</text>
    <text x="377" y="280" class="small">• Failure Probability</text>
    <text x="377" y="300" class="small">• Risk Evidence</text>

    <rect x="350" y="375" width="230" height="92" rx="16" fill="#dcfce7" stroke="#2f855a"/>
    <text x="377" y="407" class="label">Vision Agent</text>
    <text x="377" y="433" class="small">• Defect Detection</text>
    <text x="377" y="453" class="small">• Localization</text>
  </g>

  <g filter="url(#brainShadow)">
    <rect x="635" y="245" width="350" height="200" rx="30" fill="#eef2ff" stroke="#4f46e5" stroke-width="3.4"/>
    <circle cx="690" cy="305" r="27" fill="#4f46e5"/>
    <text x="678" y="315" style="font:700 27px Arial,sans-serif;fill:#fff">◎</text>
    <text x="735" y="292" class="brain">LangGraph Multi-Agent</text>
    <text x="735" y="319" class="brain">Investigation Engine</text>
    <text x="735" y="350" class="small">orchestrates:</text>
    <text x="755" y="374" class="small">• Telemetry • Vision • Memory</text>
    <text x="755" y="397" class="small">• Investigation • Policy</text>
    <text x="735" y="423" class="small">system brain + visible trace</text>
  </g>

  <g filter="url(#shadow)">
    <rect x="1030" y="222" width="250" height="92" rx="16" fill="#fff7e6" stroke="#b7791f"/>
    <text x="1060" y="254" class="label">Qdrant Memory</text>
    <text x="1060" y="280" class="small">• Similar Incidents</text>
    <text x="1060" y="300" class="small">• Match Reasoning</text>

    <rect x="1030" y="375" width="250" height="92" rx="16" fill="#dcfce7" stroke="#2f855a"/>
    <text x="1060" y="407" class="label">Investigation Copilot</text>
    <text x="1060" y="433" class="small">• Root Cause Analysis</text>
    <text x="1060" y="453" class="small">• Recommended Actions</text>
    <text x="1060" y="473" class="small">• Evidence Synthesis</text>
  </g>

  <g filter="url(#shadow)">
    <rect x="820" y="680" width="190" height="76" rx="16" fill="#f5eeff" stroke="#805ad5"/>
    <text x="847" y="711" class="label">Severity Engine</text>
    <text x="847" y="736" class="small">classification</text>

    <rect x="1040" y="680" width="190" height="76" rx="16" fill="#f5eeff" stroke="#805ad5"/>
    <text x="1070" y="711" class="label">Policy Engine</text>
    <text x="1070" y="736" class="small">approval rules</text>

    <rect x="900" y="790" width="250" height="76" rx="18" fill="#f5eeff" stroke="#805ad5" stroke-width="2"/>
    <text x="933" y="821" class="label">Human Approval</text>
    <text x="933" y="846" class="small">human-in-the-loop</text>
  </g>

  <g filter="url(#shadow)">
    <rect x="1232" y="528" width="248" height="142" rx="20" fill="#feecec" stroke="#c53030" stroke-width="2.3"/>
    <text x="1260" y="570" class="label">Investigation Outcome</text>
    <text x="1260" y="600" class="small">Incident Resolution</text>
    <text x="1260" y="624" class="small">Severity Decision</text>
    <text x="1260" y="648" class="small">Action Plan</text>
  </g>

  <g filter="url(#shadow)">
    <rect x="335" y="603" width="300" height="220" rx="20" fill="#ffffff" stroke="#cbd5e1"/>
    <text x="362" y="638" class="panelTitle">Trust &amp; Explainability</text>
    <text x="362" y="668" class="panelItem">✓ Agent Trace</text>
    <text x="362" y="693" class="panelItem">✓ Similar Incident Reasoning</text>
    <text x="362" y="718" class="panelItem">✓ Vision Localization</text>
    <text x="362" y="743" class="panelItem">✓ Telemetry Risk</text>
    <text x="362" y="768" class="panelItem">✓ Vision Confidence</text>
    <text x="362" y="793" class="panelItem">✓ Retrieval Similarity</text>
    <text x="362" y="818" class="panelItem">✓ Investigation Confidence</text>
  </g>

  <g filter="url(#shadow)">
    <rect x="70" y="620" width="240" height="178" rx="20" fill="#ffffff" stroke="#cbd5e1"/>
    <text x="98" y="655" class="panelTitle">Evidence Generated</text>
    <text x="98" y="685" class="panelItem">✓ Failure Prediction</text>
    <text x="98" y="710" class="panelItem">✓ Defect Detection</text>
    <text x="98" y="735" class="panelItem">✓ Similar Incidents</text>
    <text x="98" y="760" class="panelItem">✓ Root Cause + Action</text>
  </g>

  <g filter="url(#shadow)">
    <rect x="1240" y="190" width="220" height="222" rx="20" fill="#ffffff" stroke="#cbd5e1"/>
    <text x="1266" y="225" class="panelTitle">AMD Roadmap</text>
    <text x="1328" y="260" class="roadmap">Local</text>
    <text x="1350" y="282" class="roadmap">↓</text>
    <text x="1325" y="305" class="roadmap">Docker</text>
    <text x="1350" y="327" class="roadmap">↓</text>
    <text x="1308" y="350" class="roadmap">AMD Cloud</text>
    <text x="1350" y="372" class="roadmap">↓</text>
    <text x="1328" y="395" class="roadmap">MI300</text>
    <text x="1350" y="417" class="roadmap">↓</text>
    <text x="1298" y="440" class="roadmap">LoRA Fine-Tuning</text>
  </g>

  <path class="arrow" d="M280 246 H350"/>
  <path class="arrow" d="M280 381 H350"/>
  <path class="arrow" d="M280 516 C435 520 535 425 635 355"/>
  <path class="arrow" d="M580 268 C610 275 625 300 635 325"/>
  <path class="arrow" d="M580 421 C610 405 624 380 635 360"/>
  <path class="arrow" d="M985 330 C1008 300 1014 270 1030 263"/>
  <path class="arrow" d="M1155 314 V375"/>
  <path class="arrow" d="M1155 467 C1120 555 1040 620 930 680"/>
  <path class="arrow" d="M1010 718 H1040"/>
  <path class="arrow" d="M1025 756 V790"/>
  <path class="arrow" d="M1150 828 C1215 795 1250 705 1320 670"/>
  <path class="dash" d="M635 415 C592 505 545 570 500 603"/>
  <path class="dash" d="M1240 286 C1195 305 1172 350 1155 390"/>
</svg>
